<?xml version="1.0" encoding="UTF-8"?>
<svg width="512" height="512" viewBox="0 0 512 512" xmlns="http://www.w3.org/2000/svg" role="img" aria-labelledby="title desc">
  <title id="title">Swirl with Sprout</title>
  <desc id="desc">Hand-drawn spiral line with a small sprout at the tail and a dashed segment near the top. Transparent background.</desc>

  <!-- Style (tweak stroke color/width here or via CSS when inlined) -->
  <g fill="none" stroke="currentColor" stroke-width="10" stroke-linecap="round" stroke-linejoin="round" opacity=".92">

    <!-- Main spiral (2.25 turns, gentle hand-drawn feel) -->
    <path d="
      M 286 246
      c -7 -20 -34 -25 -52 -17 -21 9 -28 33 -20 51 11 25 45 31 71 22
      c 36 -12 48 -48 37 -79 -13 -37 -54 -53 -93 -41 -49 15 -69 64 -53 108
      c 19 52 79 77 133 60 67 -21 96 -92 73 -155
      c -27 -73 -112 -106 -187 -79 -87 31 -125 128 -94 208
      c 35 89 144 130 236 96 105 -39 154 -160 112 -261
      c -46 -113 -177 -167 -292 -124 -129 49 -188 199 -139 325
      c 53 136 219 201 360 148" />

    <!-- Tail continuation (open arc end, like the reference) -->
    <path d="M 123 399
      c 26 20 72 42 120 47" />

    <!-- Sprout (little stem + two leaves at the tail, left side) -->
    <path d="
      M 118 388
      c -18 -20 -25 -41 -12 -60
      c 14 -19 40 -19 58 -2" />
    <path d="
      M 135 360
      c -26 -10 -46 -4 -58 12
      c 18 8 36 9 58 -12" />
    <path d="
      M 152 345
      c 20 -8 35 -5 45 4
      c -12 15 -29 19 -45 -4" />

    <!-- Top dashed segment (break in the outer arc) -->
    <path d="
      M 360 76
      C 410 95 451 130 476 176" 
      stroke-dasharray="26 18" />

  </g>
</svg>
