<!-- spiral-sprout-clean.svg  (transparent background) -->
<svg xmlns="http://www.w3.org/2000/svg" viewBox="0 0 512 512" preserveAspectRatio="xMidYMid meet" role="img" aria-label="Hand-drawn spiral with sprout">
  <defs>
    <!-- Tweak these to match palette -->
    <style>
      .ink {
        fill: none;
        stroke: var(--swirl-stroke, var(--ink-700, hsl(231 20% 28%)));
        stroke-width: var(--swirl-width, 12);
        stroke-linecap: round;
        stroke-linejoin: round;
      }
      .dash {
        stroke-dasharray: 32 var(--swirl-dash-gap, 20);
        stroke-linecap: round;
        stroke-opacity: .85;
      }
    </style>
  </defs>

  <!-- Main spiral (3.25 turns, gentle hand-drawn curves) -->
  <path class="ink" d="
    M 266.0 256.0
    L 267.1 257.0 268.0 258.1 268.9 259.5 269.6 260.9 270.1 262.6 270.5 264.4 270.6 266.2 270.5 268.2 270.2 270.2 269.6 272.2 268.8 274.3 267.7 276.3 266.4 278.2 264.8 280.1 262.9 281.8 260.8 283.4 258.5 284.9 256.0 286.1 253.3 287.1 250.4 287.8 247.3 288.3 244.2 288.5 240.9 288.3 237.6 287.9 234.2 287.1 230.9 285.9 227.6 284.4 224.4 282.5 221.3 280.3 218.3 277.8 215.6 274.9 213.0 271.6 210.7 268.1 208.8 264.3 207.1 260.3 205.8 256.0 204.9 251.5 204.4 246.9 204.3 242.1 204.6 237.3 205.4 232.4 206.7 227.5 208.5 222.7 210.7 218.0 213.4 213.4 216.5 209.0 220.2 204.8 224.2 200.9 228.6 197.3 233.5 194.1 238.7 191.3 244.2 188.9 250.0 187.1 256.0 185.7 262.2 184.8 268.6 184.5 275.1 184.8 281.6 185.7 288.1 187.2 294.5 189.3 300.8 192.0 306.9 195.3 312.8 199.2 318.4 203.6 323.7 208.6 328.5 214.1 332.9 220.1 336.8 226.6 340.1 233.5 342.9 240.7 345.0 248.2 346.4 256.0 347.2 264.0 347.3 272.1 346.6 280.3 345.2 288.5 343.0 296.6 340.1 304.6 336.5 312.4 332.1 319.9 327.0 327.0 321.3 333.8 314.9 340.1 307.9 345.9 300.4 351.1 292.3 355.7 283.7 359.5 274.8 362.7 265.5 365.0 256.0 366.5 246.3 367.2 236.4 367.1 226.5 366.0 216.7 364.1 206.9 361.2 197.4 357.5 188.1 352.9 179.2 347.5 170.7 341.3 162.8 334.2 155.4 326.4 148.7 318.0 142.7 308.8 137.4 299.2 133.1 288.9 129.5 278.3 127.0 267.3 125.4 256.0 124.7 244.5 125.1 232.9 126.6 221.3 129.0 209.8 132.5 198.4 137.1 187.3 142.6 176.6 149.1 166.3 156.5 156.5 164.8 147.4 174.0 138.9 184.0 131.3 194.7 124.4 206.0 118.5 217.9 113.6 230.2 109.7 243.0 106.9 256.0 105.3 269.2 104.7 282.6 105.3 295.9 107.2 309.1 110.1 322.1 114.3 334.7 119.6 346.9 126.1 358.6 133.7 369.7 142.3 380.0 151.9 389.5 162.5 398.2 173.9 405.8 186.2 412.3 199.1 417.8 212.6 422.1 226.7 425.1 241.2 426.8 256.0 427.3 271.0 426.5 286.1 424.3 301.1 420.7 316.0 415.9 330.6 409.8 344.8 402.4 358.5 393.7 371.6 383.9 383.9 373.0 395.4 361.0 406.0 348.1 415.6 334.3 424.0 319.8 431.2 304.6 437.2 288.8 441.9 272.5 445.1 256.0 447.0 239.3 447.3 222.5 446.3 205.7 443.7 189.2 439.6 172.9 434.1 157.2 427.2 142.0 418.8 127.5 409.1 113.9 398.1 101.2 385.9 89.5 372.6 79.0 358.2 69.8 342.8 61.9 326.7 55.4 309.8 50.3 292.3 46.9 274.3 44.9 256.0 44.6 237.5 45.9 219.0 48.9 200.5 53.5 182.3 59.7 164.4 67.4 147.1 76.7 130.5 87.5 114.6 99.6 99.6 113.2 85.8 127.9 73.0 143.8 61.6 160.7 51.6 178.5 43.0 197.0 35.9 216.2 30.5 235.9 26.8 256.0 24.8 276.2 24.6 296.5 26.1 316.7 29.5 336.6 34.6 356.1 41.4 374.9 50.0 393.1 60.2 410.3 72.1 426.6 85.4 441.6 100.2 455.4 116.4 467.8 133.7 478.7 152.2 487.9 171.6 495.5 191.8 501.3 212.8 505.2 234.2 507.3 256.0
  "/>

  <!-- Sprout at lower-left of inner turn -->
  <path class="ink" d="
    M 214 320
    C 202 326 192 334 186 346
      184 351 184 356 188 360
      193 365 203 363 210 358
  "/>
  <path class="ink" d="
    M 186 346
    C 174 332 156 328 140 334
      131 337 122 344 118 354
      115 362 119 369 128 370
      141 371 157 362 167 351
  "/>
  <path class="ink" d="
    M 210 358
    C 220 370 240 376 256 372
  "/>

  <!-- Dashed outer arc (open at bottom) -->
  <path class="ink dash" d="
    M 108 216
    C 142 138 222 90 310 94
      398 98 470 159 488 242
  "/>
</svg>
